<svg version="1.1" id="Layer_1" xmlns="http://www.w3.org/2000/svg" xmlns:xlink="http://www.w3.org/1999/xlink" x="0px" y="0px"
	 width="100%" viewBox="0 0 736 864" enable-background="new 0 0 736 864" xml:space="preserve">
<path fill="#000000" opacity="1.000000" stroke="none" 
	d="
M357.583344,1.000000 
	C358.203400,6.194180 356.215973,11.586277 359.401276,16.511070 
	C355.787445,23.695845 359.166351,31.369663 358.311798,38.891754 
	C357.375214,47.135792 355.357391,56.282413 358.613007,64.946617 
	C359.842682,68.219139 359.520630,71.947044 358.573730,75.319939 
	C356.061371,84.268959 358.016296,93.182121 358.594299,102.079002 
	C358.823059,105.599953 359.137238,108.974915 358.209076,112.437737 
	C356.986603,116.998596 356.671387,121.567230 358.581940,126.117401 
	C359.137573,127.440681 359.487488,129.133270 359.183990,130.489212 
	C356.940033,140.514679 359.414886,150.711197 358.091339,160.676910 
	C357.017853,168.759781 360.707062,176.868698 357.400604,184.840851 
	C356.931732,185.971344 357.008942,187.610931 357.444733,188.788666 
	C360.539459,197.151978 358.436615,205.586533 357.639160,213.906540 
	C356.852539,222.113571 358.673004,230.158142 358.224304,238.278259 
	C357.730194,247.219269 357.423920,256.017609 358.496063,265.062195 
	C359.083496,270.017609 357.970520,275.711578 358.197906,281.131073 
	C358.372223,285.285248 357.947693,289.483246 358.919220,293.570862 
	C360.138977,298.703064 357.383484,303.356964 357.359253,308.333588 
	C357.320312,316.324371 357.845306,324.268311 358.983734,332.177155 
	C359.748169,337.488037 357.504303,342.512726 357.652863,347.906403 
	C357.821594,354.033417 357.880585,360.134735 358.665924,366.223236 
	C359.220764,370.524994 359.610779,374.793091 357.931183,379.020020 
	C356.796143,381.876495 357.109283,384.973694 357.668304,387.897095 
	C358.400391,391.725555 358.463867,395.443329 357.683990,399.273895 
	C356.650757,404.348907 358.136383,405.915131 363.111572,407.672455 
	C368.354645,409.524384 370.884308,414.194214 372.620636,419.144318 
	C374.549591,424.643555 375.199921,430.493439 376.697235,436.081482 
	C378.601593,443.188568 384.212860,448.097382 389.126160,453.284332 
	C391.659698,455.958984 394.357208,458.633728 395.574585,462.104340 
	C400.544006,476.271484 411.770935,484.297729 423.680389,491.961151 
	C434.307373,498.799286 446.635315,501.804596 457.557220,507.754181 
	C466.313690,512.524170 475.722168,513.860291 485.153839,515.750793 
	C495.642059,517.853088 502.736267,523.978760 505.907959,534.361816 
	C507.824738,540.636719 508.738586,547.101501 508.326813,553.601562 
	C507.889984,560.496521 505.216888,566.166565 498.977264,570.282227 
	C492.496674,574.556885 485.883301,579.064148 478.262817,579.463318 
	C468.981476,579.949402 459.903168,581.758179 450.658997,582.310669 
	C443.519562,582.737427 436.398010,583.412842 429.235992,583.409058 
	C428.045380,583.408386 426.914337,583.656494 425.602081,585.162292 
	C428.436066,590.577393 432.102173,595.855835 434.552155,601.815430 
	C438.987305,612.604126 442.621643,623.650391 446.375977,634.666321 
	C447.477661,637.898926 447.304596,641.185181 446.750763,644.534241 
	C445.633392,651.291443 443.731689,657.816040 441.479828,664.266052 
	C437.532990,675.571045 429.342865,682.191040 418.200653,685.640198 
	C408.068726,688.776672 398.805786,694.435303 387.965027,695.627869 
	C384.550049,696.003540 383.077362,698.474243 384.753693,702.286377 
	C387.573273,708.698120 389.168243,715.483643 390.522491,722.375793 
	C392.610413,733.001831 391.228363,743.213928 387.685333,753.201843 
	C383.710815,764.405945 371.696198,771.568176 361.207886,771.064148 
	C349.246368,770.489258 339.355286,764.544800 334.881531,751.468445 
	C330.062134,737.381775 331.209167,723.312073 336.098358,709.420959 
	C336.981598,706.911438 337.638397,704.318115 338.599640,701.841003 
	C340.333527,697.372742 338.142059,695.772888 334.118408,695.282104 
	C318.493134,693.376404 304.053680,687.980042 290.770050,679.716797 
	C277.210632,671.282043 272.185822,658.266174 272.025848,642.805725 
	C271.903717,630.999512 273.698395,619.809753 279.405334,609.192200 
	C281.763733,604.804565 281.495941,599.210876 283.661530,594.505371 
	C283.865540,594.062012 283.850006,593.522949 284.004059,593.050476 
	C286.715271,584.735474 286.744568,584.465332 277.876343,583.581421 
	C264.512787,582.249573 251.141541,580.919983 237.763199,579.747620 
	C224.532898,578.588196 212.216949,573.527832 207.309326,559.289124 
	C203.724655,548.888794 205.021362,531.606506 215.831680,521.762024 
	C221.858383,516.273804 229.523575,515.111633 237.030518,513.885254 
	C243.359146,512.851379 249.189911,510.966919 254.972275,508.151337 
	C263.476868,504.010193 272.607788,501.141571 281.057190,496.904022 
	C294.199982,490.312653 306.815735,482.745056 315.302856,470.150543 
	C318.076660,466.034302 319.367279,460.528351 322.877838,457.373352 
	C332.706390,448.540344 336.558746,437.584320 338.098938,424.921326 
	C339.015198,417.387756 342.393372,410.539185 351.798340,407.828125 
	C351.798340,397.248840 351.796875,386.389648 351.799896,375.530457 
	C351.800354,373.856476 351.735870,372.228271 350.836578,370.702515 
	C350.342804,369.864746 349.595337,368.583160 349.899780,367.958954 
	C353.399414,360.784149 346.847168,352.924683 351.482178,345.807953 
	C352.090790,344.873505 351.879730,343.129089 351.537170,341.902557 
	C350.471527,338.086975 350.830750,334.412933 351.540436,330.565063 
	C352.162933,327.190094 352.268677,323.664734 350.775055,320.263428 
	C349.243683,316.776093 349.603607,313.046448 350.435883,309.448669 
	C352.636871,299.933960 352.246490,290.475433 350.248535,280.994385 
	C349.661499,278.208649 349.650818,275.411469 350.671387,272.636780 
	C352.392761,267.956573 352.455261,263.216400 350.579254,258.555511 
	C349.937347,256.960876 349.361694,255.274475 349.820587,253.695801 
	C352.480652,244.544861 349.461792,235.154053 351.024261,226.035004 
	C352.538177,217.199173 348.704590,208.311111 351.727020,199.540955 
	C352.186707,198.207123 352.183380,196.397415 351.667938,195.095291 
	C348.352539,186.719864 350.951019,178.412704 351.737823,170.096329 
	C352.448944,162.580063 351.101410,155.172058 350.754120,147.713776 
	C350.489380,142.028427 352.393738,136.531723 351.866791,130.825897 
	C351.622406,128.179626 351.706207,125.547523 350.770203,122.968582 
	C349.847443,120.426056 350.452148,117.951874 350.947601,115.250557 
	C352.325409,107.738052 350.864319,100.104820 350.397522,92.540291 
	C350.148651,88.507187 349.993591,84.691986 351.181427,80.730125 
	C352.683197,75.721008 352.542755,70.278145 351.558044,65.365990 
	C349.533081,55.264729 351.024078,45.380367 351.573975,35.385056 
	C351.909088,29.293816 352.146637,23.187859 350.367859,17.133310 
	C348.794128,11.776786 350.366821,6.595711 352.819458,1.326906 
	C354.388885,1.000000 355.777802,1.000000 357.583344,1.000000 
M345.361542,714.728455 
	C339.236084,715.840881 337.798096,720.951904 336.889038,725.750854 
	C336.159454,729.602295 334.626068,734.877014 338.924866,737.182251 
	C342.827362,739.274841 345.818848,735.079895 348.549957,732.588440 
	C357.672424,724.266479 357.052979,720.280090 345.361542,714.728455 
M370.275635,727.159241 
	C372.958801,730.805420 376.041595,734.092834 379.801056,736.606506 
	C382.149323,738.176758 384.840576,739.095886 386.410736,735.508545 
	C388.589905,730.529785 386.546753,721.004211 382.701324,717.189819 
	C379.093292,713.610901 375.777313,715.184937 372.477661,717.633789 
	C369.363922,719.944458 366.490906,722.342285 370.275635,727.159241 
M359.924072,503.655090 
	C362.521912,505.864563 365.272064,504.266357 367.979919,503.999908 
	C371.427704,503.660706 371.641693,501.979980 370.971252,498.858246 
	C369.460083,491.821808 364.575104,489.499481 358.354492,488.489624 
	C356.720947,493.685333 356.905060,495.851501 359.924072,503.655090 
M350.324524,492.263031 
	C343.111145,489.616913 338.025177,493.206848 338.462646,500.605316 
	C338.528046,501.711182 338.984741,502.376007 339.939606,502.943787 
	C343.933014,505.318146 348.635437,503.728241 350.316650,499.364929 
	C351.117798,497.285706 350.990417,495.155792 350.324524,492.263031 
z"/>
</svg>